<svg xmlns="http://www.w3.org/2000/svg" width="160" height="32" viewBox="0 0 160 32" shape-rendering="crispEdges">
  <rect width="160" height="32" fill="none"/>

  <!-- Huaqiang: buzz cut, long stern face, black jacket and black shirt. -->
  <g>
    <rect x="10" y="2" width="12" height="2" fill="#0b0b0b"/>
    <rect x="8" y="4" width="16" height="3" fill="#111111"/>
    <rect x="7" y="7" width="18" height="2" fill="#171717"/>
    <rect x="6" y="9" width="3" height="5" fill="#1b1b1b"/>
    <rect x="24" y="9" width="3" height="5" fill="#1b1b1b"/>
    <rect x="8" y="8" width="17" height="11" fill="#d99756"/>
    <rect x="9" y="9" width="14" height="2" fill="#e2aa6c"/>
    <rect x="7" y="12" width="2" height="5" fill="#c9854d"/>
    <rect x="24" y="12" width="2" height="5" fill="#b87545"/>
    <rect x="10" y="10" width="12" height="1" fill="#b87545"/>
    <rect x="11" y="12" width="4" height="1" fill="#28140c"/>
    <rect x="18" y="12" width="4" height="1" fill="#28140c"/>
    <rect x="11" y="14" width="3" height="1" fill="#111111"/>
    <rect x="19" y="14" width="3" height="1" fill="#111111"/>
    <rect x="16" y="14" width="2" height="4" fill="#b87545"/>
    <rect x="14" y="18" width="6" height="1" fill="#30100b"/>
    <rect x="15" y="19" width="3" height="1" fill="#180707"/>
    <rect x="12" y="19" width="9" height="3" fill="#c9854d"/>
    <rect x="9" y="21" width="14" height="8" fill="#0d0d10"/>
    <rect x="7" y="20" width="6" height="10" fill="#17191d"/>
    <rect x="20" y="20" width="6" height="10" fill="#17191d"/>
    <rect x="4" y="22" width="5" height="8" fill="#101216"/>
    <rect x="24" y="22" width="5" height="8" fill="#101216"/>
    <rect x="10" y="20" width="4" height="4" fill="#25272c"/>
    <rect x="19" y="20" width="4" height="4" fill="#25272c"/>
    <rect x="12" y="22" width="8" height="7" fill="#050505"/>
    <rect x="24" y="20" width="1" height="1" fill="#f8fafc"/>
    <rect x="25" y="21" width="1" height="1" fill="#f8fafc"/>
    <rect x="24" y="23" width="1" height="1" fill="#f8fafc"/>
    <rect x="4" y="29" width="24" height="2" fill="#050505"/>
    <rect x="3" y="25" width="3" height="4" fill="#d99756"/>
    <rect x="27" y="25" width="3" height="4" fill="#d99756"/>
  </g>

  <!-- Melon vendor: blue workwear, green apron, anxious expression. -->
  <g transform="translate(32 0)">
    <rect x="8" y="3" width="16" height="3" fill="#3b2015"/>
    <rect x="6" y="6" width="20" height="4" fill="#5b2d16"/>
    <rect x="9" y="9" width="14" height="10" fill="#d28a52"/>
    <rect x="11" y="12" width="3" height="1" fill="#151515"/>
    <rect x="18" y="12" width="3" height="1" fill="#151515"/>
    <rect x="13" y="17" width="6" height="1" fill="#6b1d1d"/>
    <rect x="6" y="19" width="20" height="10" fill="#1d88a8"/>
    <rect x="10" y="20" width="12" height="9" fill="#2f8f4e"/>
    <rect x="8" y="22" width="4" height="2" fill="#62d060"/>
    <rect x="20" y="22" width="4" height="2" fill="#62d060"/>
    <rect x="4" y="21" width="5" height="8" fill="#16677e"/>
    <rect x="23" y="21" width="5" height="8" fill="#16677e"/>
    <rect x="5" y="29" width="22" height="2" fill="#0f3c49"/>
    <rect x="3" y="4" width="4" height="2" fill="#294457"/>
    <rect x="25" y="4" width="4" height="2" fill="#294457"/>
  </g>

  <!-- Market thug: green cap, rough jacket, melee enemy. -->
  <g transform="translate(64 0)">
    <rect x="8" y="4" width="16" height="4" fill="#3f5f35"/>
    <rect x="6" y="7" width="20" height="3" fill="#2f4a27"/>
    <rect x="9" y="10" width="14" height="9" fill="#b87545"/>
    <rect x="11" y="13" width="3" height="1" fill="#111111"/>
    <rect x="19" y="13" width="3" height="1" fill="#111111"/>
    <rect x="14" y="17" width="6" height="1" fill="#2c0f0f"/>
    <rect x="6" y="19" width="20" height="10" fill="#33442e"/>
    <rect x="9" y="20" width="14" height="2" fill="#99c061"/>
    <rect x="4" y="21" width="5" height="8" fill="#263520"/>
    <rect x="23" y="21" width="5" height="8" fill="#263520"/>
    <rect x="7" y="29" width="18" height="2" fill="#121912"/>
    <rect x="2" y="23" width="5" height="3" fill="#6f3423"/>
    <rect x="25" y="23" width="5" height="3" fill="#6f3423"/>
  </g>

  <!-- Scale-weight enforcer: metal body, red eyes, magnet target. -->
  <g transform="translate(96 0)">
    <rect x="11" y="3" width="10" height="5" fill="#a1a1aa"/>
    <rect x="8" y="8" width="16" height="4" fill="#71717a"/>
    <rect x="6" y="12" width="20" height="14" fill="#52525b"/>
    <rect x="8" y="14" width="16" height="2" fill="#d4d4d8"/>
    <rect x="10" y="18" width="3" height="2" fill="#ef3340"/>
    <rect x="19" y="18" width="3" height="2" fill="#ef3340"/>
    <rect x="13" y="23" width="7" height="1" fill="#18181b"/>
    <rect x="4" y="15" width="3" height="10" fill="#3f3f46"/>
    <rect x="25" y="15" width="3" height="10" fill="#3f3f46"/>
    <rect x="5" y="26" width="22" height="3" fill="#27272a"/>
    <rect x="9" y="29" width="14" height="2" fill="#18181b"/>
  </g>

  <!-- Electronic Scale Boss: screen face, crown-like keypad, final target. -->
  <g transform="translate(128 0)">
    <rect x="5" y="4" width="22" height="5" fill="#27272a"/>
    <rect x="3" y="9" width="26" height="18" fill="#1f2937"/>
    <rect x="6" y="12" width="20" height="7" fill="#84cc16"/>
    <rect x="8" y="14" width="3" height="2" fill="#111827"/>
    <rect x="21" y="14" width="3" height="2" fill="#111827"/>
    <rect x="13" y="17" width="6" height="1" fill="#111827"/>
    <rect x="7" y="21" width="3" height="3" fill="#ef3340"/>
    <rect x="12" y="21" width="3" height="3" fill="#facc15"/>
    <rect x="17" y="21" width="3" height="3" fill="#38bdf8"/>
    <rect x="22" y="21" width="3" height="3" fill="#ef3340"/>
    <rect x="1" y="12" width="3" height="11" fill="#111827"/>
    <rect x="28" y="12" width="3" height="11" fill="#111827"/>
    <rect x="4" y="27" width="24" height="3" fill="#0f172a"/>
    <rect x="8" y="2" width="3" height="2" fill="#facc15"/>
    <rect x="15" y="1" width="3" height="3" fill="#facc15"/>
    <rect x="22" y="2" width="3" height="2" fill="#facc15"/>
  </g>
</svg>
